<svg width="351" height="98" viewBox="0 0 351 98" fill="none" xmlns="http://www.w3.org/2000/svg">
<circle cx="302" cy="49" r="44" fill="#0068E1"/>
<rect x="258" y="5" width="88" height="88" rx="44" fill="url(#paint0_linear_1380_63)" fill-opacity="0.8"/>
<path d="M297.898 70.158H292.206C287.973 70.158 285.857 70.158 284.302 69.3099C282.936 68.5649 281.859 67.3828 281.245 65.9532C280.546 64.3257 280.743 62.2187 281.138 58.0047L282.528 43.1836C282.861 39.6251 283.028 37.8459 283.828 36.5007C284.533 35.316 285.575 34.3677 286.82 33.7766C288.234 33.1054 290.021 33.1054 293.595 33.1054L310.403 33.1054C313.977 33.1054 315.764 33.1054 317.178 33.7766C318.423 34.3677 319.465 35.316 320.169 36.5007C320.97 37.8459 321.136 39.6251 321.47 43.1836L321.828 47.0001M311.262 40.0528V33.1054C311.262 27.9895 307.115 23.8422 301.999 23.8422C296.883 23.8422 292.736 27.9895 292.736 33.1054V40.0527" stroke="white" stroke-width="4.125" stroke-linecap="round" stroke-linejoin="round"/>
<path d="M322.229 59.8527C323.194 59.333 323.677 59.0731 323.803 58.7563C323.912 58.4813 323.885 58.1708 323.73 57.9189C323.551 57.6288 323.03 57.4565 321.989 57.1119L306.587 52.0122C305.676 51.7104 305.22 51.5595 304.917 51.668C304.653 51.7625 304.445 51.9703 304.35 52.2344C304.242 52.5379 304.393 52.9936 304.694 53.905L309.794 69.3072C310.139 70.348 310.311 70.8683 310.601 71.0473C310.853 71.2026 311.164 71.2298 311.439 71.1204C311.755 70.9945 312.015 70.5118 312.535 69.5465L315.715 63.6412C315.794 63.4941 315.834 63.4206 315.885 63.3562C315.93 63.299 315.981 63.2474 316.039 63.2022C316.103 63.1513 316.176 63.1117 316.324 63.0325L322.229 59.8527Z" stroke="white" stroke-width="4.125" stroke-linecap="round" stroke-linejoin="round"/>
<path d="M318.349 82.5535C318.352 82.9145 318.375 83.2756 318.423 83.6321C318.427 83.6458 318.427 83.6595 318.431 83.6732C318.468 83.92 318.573 84.0982 318.752 84.2216C318.872 84.3039 318.995 84.377 319.134 84.4044C319.343 84.4501 319.556 84.5004 319.765 84.5507C319.825 84.5644 319.866 84.6101 319.874 84.6741C319.881 84.7335 319.851 84.7929 319.799 84.8249C319.769 84.8386 319.736 84.8477 319.706 84.8615C319.53 84.9163 319.354 84.9803 319.19 85.0808C318.924 85.2408 318.73 85.4876 318.618 85.8212C318.487 86.2051 318.397 86.6027 318.352 87.014C318.341 87.1329 318.326 87.2517 318.315 87.3705C318.307 87.4482 318.274 87.4939 318.221 87.4985C318.169 87.5076 318.128 87.4756 318.102 87.4071C318.091 87.3751 318.083 87.3431 318.076 87.3111C317.993 86.9775 317.877 86.6621 317.732 86.3605C317.698 86.2965 317.664 86.2279 317.623 86.1731C317.436 85.9309 317.234 85.7069 317.003 85.5287C316.812 85.3825 316.603 85.3002 316.386 85.2408C316.21 85.1951 316.034 85.1539 315.859 85.1128C315.791 85.0991 315.754 85.0534 315.75 84.9894C315.747 84.9209 315.784 84.866 315.851 84.8477C315.87 84.8432 315.892 84.8386 315.915 84.8386C316.019 84.8523 316.117 84.8158 316.214 84.7975C316.412 84.7563 316.603 84.6832 316.793 84.6101C316.891 84.5735 316.984 84.5278 317.081 84.4867C317.395 84.3496 317.586 84.0708 317.706 83.7052C317.735 83.6092 317.758 83.5087 317.791 83.4173C317.84 83.2802 317.892 83.143 317.941 83.0059C317.971 82.9282 318.005 82.846 318.023 82.7637C318.068 82.5672 318.109 82.3707 318.154 82.1696C318.162 82.1376 318.173 82.1056 318.184 82.069C318.199 82.0233 318.225 81.9959 318.266 82.0005C318.311 82.0051 318.337 82.0416 318.345 82.0919C318.349 82.133 318.349 82.1696 318.349 82.2107C318.349 82.325 318.349 82.4392 318.349 82.5535Z" fill="white"/>
<path d="M283.107 23.1517C283.11 23.3323 283.125 23.5128 283.157 23.691C283.16 23.6979 283.16 23.7047 283.162 23.7116C283.187 23.835 283.257 23.9241 283.377 23.9858C283.456 24.0269 283.539 24.0635 283.631 24.0772C283.77 24.1001 283.912 24.1252 284.052 24.1503C284.092 24.1572 284.119 24.18 284.124 24.212C284.129 24.2417 284.109 24.2714 284.074 24.2874C284.054 24.2943 284.032 24.2989 284.012 24.3057C283.895 24.3331 283.778 24.3651 283.668 24.4154C283.491 24.4954 283.362 24.6188 283.287 24.7856C283.2 24.9775 283.14 25.1764 283.11 25.382C283.102 25.4414 283.092 25.5008 283.085 25.5603C283.08 25.5991 283.058 25.622 283.023 25.6242C282.988 25.6288 282.96 25.6128 282.943 25.5785C282.935 25.5625 282.93 25.5465 282.925 25.5305C282.871 25.3637 282.793 25.2061 282.696 25.0552C282.674 25.0233 282.651 24.989 282.624 24.9616C282.499 24.8404 282.365 24.7285 282.21 24.6394C282.083 24.5662 281.943 24.5251 281.799 24.4954C281.682 24.4725 281.565 24.452 281.447 24.4314C281.403 24.4246 281.378 24.4017 281.375 24.3697C281.373 24.3354 281.398 24.308 281.442 24.2989C281.455 24.2966 281.47 24.2943 281.485 24.2943C281.555 24.3012 281.619 24.2829 281.684 24.2737C281.816 24.2532 281.943 24.2166 282.071 24.18C282.135 24.1618 282.198 24.1389 282.262 24.1183C282.472 24.0498 282.599 23.9104 282.679 23.7276C282.699 23.6796 282.714 23.6293 282.736 23.5836C282.768 23.5151 282.803 23.4465 282.836 23.378C282.856 23.3391 282.878 23.298 282.891 23.2569C282.92 23.1586 282.948 23.0603 282.978 22.9598C282.983 22.9438 282.99 22.9278 282.998 22.9095C283.008 22.8867 283.025 22.873 283.053 22.8752C283.082 22.8775 283.1 22.8958 283.105 22.9209C283.107 22.9415 283.107 22.9598 283.107 22.9804C283.107 23.0375 283.107 23.0946 283.107 23.1517Z" fill="white"/>
<path d="M324.357 30.0267C324.36 30.2073 324.375 30.3878 324.407 30.566C324.41 30.5729 324.41 30.5797 324.412 30.5866C324.437 30.71 324.507 30.7991 324.627 30.8608C324.706 30.9019 324.789 30.9385 324.881 30.9522C325.02 30.9751 325.162 31.0002 325.302 31.0253C325.342 31.0322 325.369 31.055 325.374 31.087C325.379 31.1167 325.359 31.1464 325.324 31.1624C325.304 31.1693 325.282 31.1739 325.262 31.1807C325.145 31.2081 325.028 31.2401 324.918 31.2904C324.741 31.3704 324.612 31.4938 324.537 31.6606C324.45 31.8525 324.39 32.0514 324.36 32.257C324.352 32.3164 324.342 32.3758 324.335 32.4353C324.33 32.4741 324.308 32.497 324.273 32.4992C324.238 32.5038 324.21 32.4878 324.193 32.4535C324.185 32.4375 324.18 32.4215 324.175 32.4055C324.121 32.2387 324.043 32.0811 323.946 31.9302C323.924 31.8983 323.901 31.864 323.874 31.8366C323.749 31.7154 323.615 31.6035 323.46 31.5144C323.333 31.4412 323.193 31.4001 323.049 31.3704C322.932 31.3475 322.815 31.327 322.697 31.3064C322.653 31.2996 322.628 31.2767 322.625 31.2447C322.623 31.2104 322.648 31.183 322.692 31.1739C322.705 31.1716 322.72 31.1693 322.735 31.1693C322.805 31.1762 322.869 31.1579 322.934 31.1487C323.066 31.1282 323.193 31.0916 323.321 31.055C323.385 31.0368 323.448 31.0139 323.512 30.9933C323.722 30.9248 323.849 30.7854 323.929 30.6026C323.949 30.5546 323.964 30.5043 323.986 30.4586C324.018 30.3901 324.053 30.3215 324.086 30.253C324.106 30.2141 324.128 30.173 324.141 30.1319C324.17 30.0336 324.198 29.9353 324.228 29.8348C324.233 29.8188 324.24 29.8028 324.248 29.7845C324.258 29.7617 324.275 29.748 324.303 29.7502C324.332 29.7525 324.35 29.7708 324.355 29.7959C324.357 29.8165 324.357 29.8348 324.357 29.8554C324.357 29.9125 324.357 29.9696 324.357 30.0267Z" fill="white"/>
<mask id="path-8-outside-1_1380_63" maskUnits="userSpaceOnUse" x="4" y="25" width="235" height="61" fill="black">
<rect fill="white" x="4" y="25" width="235" height="61"/>
<path d="M28.7781 37.3963L33.09 33.1421L37.4019 37.4274L33.09 41.7126L28.7781 37.3963ZM20.123 37.3963L24.4349 33.1421L28.7468 37.4274L24.4349 41.7126L20.123 37.3963ZM51.775 59.4437C51.775 61.5139 51.6187 63.5323 51.3063 65.4989H14.0613C11.1867 65.4989 8.9578 64.8365 7.37468 63.5116C5.79156 62.1867 5 60.22 5 57.6116C5 52.8709 6.98932 48.5753 10.9679 44.7247L12.3428 46.06C10.5513 48.1923 9.35358 50.366 8.7495 52.5811C8.52036 53.347 8.40579 54.0819 8.40579 54.7858C8.40579 56.3177 8.93697 57.5184 9.99933 58.3879C11.1242 59.3816 12.926 59.8784 15.4049 59.8784H49.1191C48.3275 57.27 47.2443 54.734 45.8695 52.2705L43.5886 48.3889L47.713 43.6689C50.421 49.4447 51.775 54.703 51.775 59.4437Z"/>
<path d="M63.2422 43.2653C66.3668 49.8277 67.9707 56.1728 68.054 62.3005C68.054 70.3121 65.0961 77.8786 59.1802 85L53.431 80.1868C58.5553 76.6675 62.0132 72.1339 63.8046 66.5858C64.3254 64.9296 64.742 63.2528 65.0544 61.5553C64.3462 58.1188 63.086 54.7961 61.2737 51.5874C60.6904 50.573 60.0447 49.5068 59.3365 48.3889L63.2422 43.2653Z"/>
<path d="M71.3036 65.4989V29.7574L76.0217 26.8074V59.8784H82.3021V65.4989H71.3036Z"/>
<path d="M106.674 26C107.736 26 108.267 26.7246 108.267 28.1737L108.455 32.49C108.309 32.4486 108.174 32.3761 108.049 32.2726C107.278 31.693 106.184 31.8586 104.768 32.7695L87.4889 43.6379C92.7591 44.1968 97.2168 45.3354 100.862 47.0537C106.028 49.5793 109.434 53.3056 111.08 58.2326C111.788 60.5512 112.09 62.9733 111.986 65.4989H79.3338C78.8755 65.4989 78.6464 65.2609 78.6464 64.7847V60.6547C78.6464 60.1372 78.8755 59.8784 79.3338 59.8784H105.612C105.028 58.1809 104.216 56.68 103.174 55.3758C99.6123 51.0698 95.8003 48.9893 91.7384 49.1342C87.6972 49.2584 85.4059 49.3102 84.8643 49.2895V42.3647C84.8643 40.957 85.1455 39.8805 85.7079 39.1353C86.2912 38.3693 87.114 37.6137 88.1763 36.8684L103.862 27.1179C105.007 26.3726 105.945 26 106.674 26Z"/>
<path d="M138.42 37.3963L142.732 33.1421L147.043 37.4274L142.732 41.7126L138.42 37.3963ZM147.075 37.3963L151.387 33.1421L155.699 37.4274L151.387 41.7126L147.075 37.3963ZM170.072 59.4437V59.8784H173.665V65.4989H132.358C129.483 65.4989 127.254 64.8365 125.671 63.5116C124.088 62.1867 123.297 60.22 123.297 57.6116C123.297 52.8709 125.286 48.5753 129.265 44.7247L130.639 46.06C128.848 48.1923 127.65 50.366 127.046 52.5811C126.817 53.347 126.702 54.0819 126.702 54.7858C126.702 56.3177 127.234 57.5184 128.296 58.3879C129.421 59.3816 131.223 59.8784 133.701 59.8784H167.416C166.624 57.27 165.541 54.734 164.166 52.2705L161.885 48.3889L166.01 43.6689C168.718 49.4447 170.072 54.703 170.072 59.4437Z"/>
<path d="M196.162 59.8784V65.4989H170.759C170.301 65.4989 170.072 65.2609 170.072 64.7847V60.6547C170.072 60.1372 170.301 59.8784 170.759 59.8784H183.414C182.726 57.477 181.528 54.703 179.82 51.5563L177.883 48.3268L182.039 43.6068C184.622 49.1135 185.965 54.5374 186.069 59.8784H196.162ZM184.132 72.61L188.475 68.3247L192.819 72.61L188.475 76.9574L184.132 72.61ZM179.727 76.9574L175.446 72.61L179.727 68.3247L184.101 72.61L179.727 76.9574Z"/>
<path d="M193.381 65.4989C192.923 65.4989 192.694 65.2609 192.694 64.7847V60.6547C192.694 60.1372 192.923 59.8784 193.381 59.8784H203.63V29.6642L208.348 26.8384V59.8784H213.785V65.4989H193.381Z"/>
<path d="M221.565 30.5958L225.939 26.2484L230.22 30.5958L225.939 34.9121L221.565 30.5958ZM219.502 50.4695C220.606 51.4011 222.325 51.8668 224.658 51.8668C227.012 51.8668 229.616 51.5667 232.469 50.9663C230.449 45.3354 228.178 42.52 225.658 42.52C223.762 42.52 222.138 43.7828 220.784 46.3084C220.054 47.7161 219.638 48.7409 219.534 49.3826C219.43 50.0244 219.419 50.3867 219.502 50.4695ZM233.844 55.8105C230.011 56.68 226.668 57.1147 223.814 57.1147C220.961 57.1147 218.95 56.6593 217.784 55.7484C217.013 55.2102 216.586 54.5581 216.503 53.7921C216.357 49.0514 217.294 45.1388 219.315 42.0542C221.356 38.9489 223.679 37.21 226.283 36.8374H226.658C229.803 36.8374 232.355 38.98 234.313 43.2653C236.271 47.5298 237.427 52.8605 237.781 59.2574L238 65.4989H210.91C210.452 65.4989 210.222 65.2609 210.222 64.7847V60.6547C210.222 60.1372 210.452 59.8784 210.91 59.8784H234.594L234.063 56.8353L233.844 55.8105Z"/>
</mask>
<path d="M28.7781 37.3963L33.09 33.1421L37.4019 37.4274L33.09 41.7126L28.7781 37.3963ZM20.123 37.3963L24.4349 33.1421L28.7468 37.4274L24.4349 41.7126L20.123 37.3963ZM51.775 59.4437C51.775 61.5139 51.6187 63.5323 51.3063 65.4989H14.0613C11.1867 65.4989 8.9578 64.8365 7.37468 63.5116C5.79156 62.1867 5 60.22 5 57.6116C5 52.8709 6.98932 48.5753 10.9679 44.7247L12.3428 46.06C10.5513 48.1923 9.35358 50.366 8.7495 52.5811C8.52036 53.347 8.40579 54.0819 8.40579 54.7858C8.40579 56.3177 8.93697 57.5184 9.99933 58.3879C11.1242 59.3816 12.926 59.8784 15.4049 59.8784H49.1191C48.3275 57.27 47.2443 54.734 45.8695 52.2705L43.5886 48.3889L47.713 43.6689C50.421 49.4447 51.775 54.703 51.775 59.4437Z" fill="white"/>
<path d="M63.2422 43.2653C66.3668 49.8277 67.9707 56.1728 68.054 62.3005C68.054 70.3121 65.0961 77.8786 59.1802 85L53.431 80.1868C58.5553 76.6675 62.0132 72.1339 63.8046 66.5858C64.3254 64.9296 64.742 63.2528 65.0544 61.5553C64.3462 58.1188 63.086 54.7961 61.2737 51.5874C60.6904 50.573 60.0447 49.5068 59.3365 48.3889L63.2422 43.2653Z" fill="white"/>
<path d="M71.3036 65.4989V29.7574L76.0217 26.8074V59.8784H82.3021V65.4989H71.3036Z" fill="white"/>
<path d="M106.674 26C107.736 26 108.267 26.7246 108.267 28.1737L108.455 32.49C108.309 32.4486 108.174 32.3761 108.049 32.2726C107.278 31.693 106.184 31.8586 104.768 32.7695L87.4889 43.6379C92.7591 44.1968 97.2168 45.3354 100.862 47.0537C106.028 49.5793 109.434 53.3056 111.08 58.2326C111.788 60.5512 112.09 62.9733 111.986 65.4989H79.3338C78.8755 65.4989 78.6464 65.2609 78.6464 64.7847V60.6547C78.6464 60.1372 78.8755 59.8784 79.3338 59.8784H105.612C105.028 58.1809 104.216 56.68 103.174 55.3758C99.6123 51.0698 95.8003 48.9893 91.7384 49.1342C87.6972 49.2584 85.4059 49.3102 84.8643 49.2895V42.3647C84.8643 40.957 85.1455 39.8805 85.7079 39.1353C86.2912 38.3693 87.114 37.6137 88.1763 36.8684L103.862 27.1179C105.007 26.3726 105.945 26 106.674 26Z" fill="white"/>
<path d="M138.42 37.3963L142.732 33.1421L147.043 37.4274L142.732 41.7126L138.42 37.3963ZM147.075 37.3963L151.387 33.1421L155.699 37.4274L151.387 41.7126L147.075 37.3963ZM170.072 59.4437V59.8784H173.665V65.4989H132.358C129.483 65.4989 127.254 64.8365 125.671 63.5116C124.088 62.1867 123.297 60.22 123.297 57.6116C123.297 52.8709 125.286 48.5753 129.265 44.7247L130.639 46.06C128.848 48.1923 127.65 50.366 127.046 52.5811C126.817 53.347 126.702 54.0819 126.702 54.7858C126.702 56.3177 127.234 57.5184 128.296 58.3879C129.421 59.3816 131.223 59.8784 133.701 59.8784H167.416C166.624 57.27 165.541 54.734 164.166 52.2705L161.885 48.3889L166.01 43.6689C168.718 49.4447 170.072 54.703 170.072 59.4437Z" fill="white"/>
<path d="M196.162 59.8784V65.4989H170.759C170.301 65.4989 170.072 65.2609 170.072 64.7847V60.6547C170.072 60.1372 170.301 59.8784 170.759 59.8784H183.414C182.726 57.477 181.528 54.703 179.82 51.5563L177.883 48.3268L182.039 43.6068C184.622 49.1135 185.965 54.5374 186.069 59.8784H196.162ZM184.132 72.61L188.475 68.3247L192.819 72.61L188.475 76.9574L184.132 72.61ZM179.727 76.9574L175.446 72.61L179.727 68.3247L184.101 72.61L179.727 76.9574Z" fill="white"/>
<path d="M193.381 65.4989C192.923 65.4989 192.694 65.2609 192.694 64.7847V60.6547C192.694 60.1372 192.923 59.8784 193.381 59.8784H203.63V29.6642L208.348 26.8384V59.8784H213.785V65.4989H193.381Z" fill="white"/>
<path d="M221.565 30.5958L225.939 26.2484L230.22 30.5958L225.939 34.9121L221.565 30.5958ZM219.502 50.4695C220.606 51.4011 222.325 51.8668 224.658 51.8668C227.012 51.8668 229.616 51.5667 232.469 50.9663C230.449 45.3354 228.178 42.52 225.658 42.52C223.762 42.52 222.138 43.7828 220.784 46.3084C220.054 47.7161 219.638 48.7409 219.534 49.3826C219.43 50.0244 219.419 50.3867 219.502 50.4695ZM233.844 55.8105C230.011 56.68 226.668 57.1147 223.814 57.1147C220.961 57.1147 218.95 56.6593 217.784 55.7484C217.013 55.2102 216.586 54.5581 216.503 53.7921C216.357 49.0514 217.294 45.1388 219.315 42.0542C221.356 38.9489 223.679 37.21 226.283 36.8374H226.658C229.803 36.8374 232.355 38.98 234.313 43.2653C236.271 47.5298 237.427 52.8605 237.781 59.2574L238 65.4989H210.91C210.452 65.4989 210.222 65.2609 210.222 64.7847V60.6547C210.222 60.1372 210.452 59.8784 210.91 59.8784H234.594L234.063 56.8353L233.844 55.8105Z" fill="white"/>
<path d="M28.7781 37.3963L33.09 33.1421L37.4019 37.4274L33.09 41.7126L28.7781 37.3963ZM20.123 37.3963L24.4349 33.1421L28.7468 37.4274L24.4349 41.7126L20.123 37.3963ZM51.775 59.4437C51.775 61.5139 51.6187 63.5323 51.3063 65.4989H14.0613C11.1867 65.4989 8.9578 64.8365 7.37468 63.5116C5.79156 62.1867 5 60.22 5 57.6116C5 52.8709 6.98932 48.5753 10.9679 44.7247L12.3428 46.06C10.5513 48.1923 9.35358 50.366 8.7495 52.5811C8.52036 53.347 8.40579 54.0819 8.40579 54.7858C8.40579 56.3177 8.93697 57.5184 9.99933 58.3879C11.1242 59.3816 12.926 59.8784 15.4049 59.8784H49.1191C48.3275 57.27 47.2443 54.734 45.8695 52.2705L43.5886 48.3889L47.713 43.6689C50.421 49.4447 51.775 54.703 51.775 59.4437Z" stroke="white" mask="url(#path-8-outside-1_1380_63)"/>
<path d="M63.2422 43.2653C66.3668 49.8277 67.9707 56.1728 68.054 62.3005C68.054 70.3121 65.0961 77.8786 59.1802 85L53.431 80.1868C58.5553 76.6675 62.0132 72.1339 63.8046 66.5858C64.3254 64.9296 64.742 63.2528 65.0544 61.5553C64.3462 58.1188 63.086 54.7961 61.2737 51.5874C60.6904 50.573 60.0447 49.5068 59.3365 48.3889L63.2422 43.2653Z" stroke="white" mask="url(#path-8-outside-1_1380_63)"/>
<path d="M71.3036 65.4989V29.7574L76.0217 26.8074V59.8784H82.3021V65.4989H71.3036Z" stroke="white" mask="url(#path-8-outside-1_1380_63)"/>
<path d="M106.674 26C107.736 26 108.267 26.7246 108.267 28.1737L108.455 32.49C108.309 32.4486 108.174 32.3761 108.049 32.2726C107.278 31.693 106.184 31.8586 104.768 32.7695L87.4889 43.6379C92.7591 44.1968 97.2168 45.3354 100.862 47.0537C106.028 49.5793 109.434 53.3056 111.08 58.2326C111.788 60.5512 112.09 62.9733 111.986 65.4989H79.3338C78.8755 65.4989 78.6464 65.2609 78.6464 64.7847V60.6547C78.6464 60.1372 78.8755 59.8784 79.3338 59.8784H105.612C105.028 58.1809 104.216 56.68 103.174 55.3758C99.6123 51.0698 95.8003 48.9893 91.7384 49.1342C87.6972 49.2584 85.4059 49.3102 84.8643 49.2895V42.3647C84.8643 40.957 85.1455 39.8805 85.7079 39.1353C86.2912 38.3693 87.114 37.6137 88.1763 36.8684L103.862 27.1179C105.007 26.3726 105.945 26 106.674 26Z" stroke="white" mask="url(#path-8-outside-1_1380_63)"/>
<path d="M138.42 37.3963L142.732 33.1421L147.043 37.4274L142.732 41.7126L138.42 37.3963ZM147.075 37.3963L151.387 33.1421L155.699 37.4274L151.387 41.7126L147.075 37.3963ZM170.072 59.4437V59.8784H173.665V65.4989H132.358C129.483 65.4989 127.254 64.8365 125.671 63.5116C124.088 62.1867 123.297 60.22 123.297 57.6116C123.297 52.8709 125.286 48.5753 129.265 44.7247L130.639 46.06C128.848 48.1923 127.65 50.366 127.046 52.5811C126.817 53.347 126.702 54.0819 126.702 54.7858C126.702 56.3177 127.234 57.5184 128.296 58.3879C129.421 59.3816 131.223 59.8784 133.701 59.8784H167.416C166.624 57.27 165.541 54.734 164.166 52.2705L161.885 48.3889L166.01 43.6689C168.718 49.4447 170.072 54.703 170.072 59.4437Z" stroke="white" mask="url(#path-8-outside-1_1380_63)"/>
<path d="M196.162 59.8784V65.4989H170.759C170.301 65.4989 170.072 65.2609 170.072 64.7847V60.6547C170.072 60.1372 170.301 59.8784 170.759 59.8784H183.414C182.726 57.477 181.528 54.703 179.82 51.5563L177.883 48.3268L182.039 43.6068C184.622 49.1135 185.965 54.5374 186.069 59.8784H196.162ZM184.132 72.61L188.475 68.3247L192.819 72.61L188.475 76.9574L184.132 72.61ZM179.727 76.9574L175.446 72.61L179.727 68.3247L184.101 72.61L179.727 76.9574Z" stroke="white" mask="url(#path-8-outside-1_1380_63)"/>
<path d="M193.381 65.4989C192.923 65.4989 192.694 65.2609 192.694 64.7847V60.6547C192.694 60.1372 192.923 59.8784 193.381 59.8784H203.63V29.6642L208.348 26.8384V59.8784H213.785V65.4989H193.381Z" stroke="white" mask="url(#path-8-outside-1_1380_63)"/>
<path d="M221.565 30.5958L225.939 26.2484L230.22 30.5958L225.939 34.9121L221.565 30.5958ZM219.502 50.4695C220.606 51.4011 222.325 51.8668 224.658 51.8668C227.012 51.8668 229.616 51.5667 232.469 50.9663C230.449 45.3354 228.178 42.52 225.658 42.52C223.762 42.52 222.138 43.7828 220.784 46.3084C220.054 47.7161 219.638 48.7409 219.534 49.3826C219.43 50.0244 219.419 50.3867 219.502 50.4695ZM233.844 55.8105C230.011 56.68 226.668 57.1147 223.814 57.1147C220.961 57.1147 218.95 56.6593 217.784 55.7484C217.013 55.2102 216.586 54.5581 216.503 53.7921C216.357 49.0514 217.294 45.1388 219.315 42.0542C221.356 38.9489 223.679 37.21 226.283 36.8374H226.658C229.803 36.8374 232.355 38.98 234.313 43.2653C236.271 47.5298 237.427 52.8605 237.781 59.2574L238 65.4989H210.91C210.452 65.4989 210.222 65.2609 210.222 64.7847V60.6547C210.222 60.1372 210.452 59.8784 210.91 59.8784H234.594L234.063 56.8353L233.844 55.8105Z" stroke="white" mask="url(#path-8-outside-1_1380_63)"/>
<defs>
<linearGradient id="paint0_linear_1380_63" x1="302" y1="5" x2="302" y2="93" gradientUnits="userSpaceOnUse">
<stop stop-color="white" stop-opacity="0.4"/>
<stop offset="1" stop-color="white" stop-opacity="0"/>
</linearGradient>
</defs>
</svg>
